<?xml version="1.0" standalone="no"?>
<!DOCTYPE svg PUBLIC "-//W3C//DTD SVG 20010904//EN"
 "http://www.w3.org/TR/2001/REC-SVG-20010904/DTD/svg10.dtd">
<svg version="1.0" xmlns="http://www.w3.org/2000/svg"
 width="512.000000pt" height="512.000000pt" viewBox="0 0 512.000000 512.000000"
 preserveAspectRatio="xMidYMid meet">

<g transform="translate(0.000000,512.000000) scale(0.100000,-0.100000)"
fill="#000000" stroke="none">
<path d="M0 2560 l0 -2560 2560 0 2560 0 0 2560 0 2560 -2560 0 -2560 0 0
-2560z m4752 2380 c14 -11 33 -39 43 -62 18 -47 28 -131 13 -122 -5 3 -6 15
-2 26 4 14 2 18 -5 14 -10 -6 -15 6 -12 27 0 4 -4 7 -10 7 -6 0 -8 7 -5 16 3
8 2 13 -3 10 -5 -3 -19 3 -31 14 -21 19 -16 29 6 13 5 -5 -1 2 -14 15 -29 28
-35 28 -107 -7 -33 -16 -62 -27 -64 -25 -7 6 22 36 63 66 46 33 93 36 128 8z
m-290 -87 c-6 -3 -9 -10 -6 -15 4 -6 2 -8 -3 -5 -6 4 -13 1 -16 -6 -7 -19 -97
-65 -162 -82 -32 -8 -77 -27 -98 -42 -98 -69 -89 -67 -126 -29 l-33 34 39 26
c49 33 94 46 156 46 54 0 142 27 207 64 24 14 47 22 50 19 3 -3 -1 -8 -8 -10z
m-163 -192 c-14 -90 14 -262 97 -596 25 -99 47 -189 50 -200 3 -13 0 -11 -11
7 -36 63 -133 462 -151 616 -3 34 -11 65 -15 68 -8 5 -11 -3 -8 -22 0 -3 -7
-17 -16 -31 -9 -14 -12 -22 -5 -18 9 6 9 3 2 -12 -15 -28 -4 -63 16 -55 15 5
15 4 3 -12 -8 -9 -22 -21 -32 -27 -15 -8 -17 -5 -16 18 1 17 -3 27 -9 26 -7
-1 -10 6 -7 20 4 18 3 20 -7 7 -10 -12 -11 -11 -7 8 3 12 2 20 -2 18 -4 -3
-18 16 -30 41 -19 40 -20 48 -8 55 31 17 138 111 148 130 16 29 18 19 8 -41z
m-321 18 c89 -31 246 -400 316 -739 35 -172 49 -294 41 -338 -8 -36 -8 -35
-21 33 -7 39 -13 77 -13 86 -1 9 -8 16 -16 16 -10 0 -14 -6 -10 -15 3 -8 0
-12 -7 -9 -7 2 -18 -3 -24 -11 -9 -12 -13 -12 -19 -2 -6 9 -4 11 6 6 8 -4 7
-1 -2 6 -17 14 -39 86 -134 448 -32 118 -66 232 -76 252 -33 66 -79 75 -133
28 -54 -48 -70 -102 -63 -213 3 -50 9 -101 12 -113 6 -18 2 -22 -33 -28 -27
-4 -52 -18 -81 -46 -22 -22 -41 -44 -41 -48 0 -4 -16 -14 -35 -21 -48 -17 -84
-74 -97 -153 -9 -54 -7 -86 15 -223 15 -88 29 -174 33 -191 5 -26 3 -32 -15
-37 -12 -3 -21 -2 -21 1 -1 4 -5 77 -10 162 -9 169 -21 218 -58 255 -32 32
-72 32 -122 -1 -38 -26 -80 -92 -80 -127 0 -16 -2 -16 -31 -1 -25 13 -36 13
-60 4 -41 -18 -96 -74 -109 -115 -10 -30 -14 -33 -30 -25 -31 17 -59 11 -105
-20 -40 -28 -85 -96 -85 -130 0 -9 -3 -10 -9 -5 -5 6 -3 38 5 80 12 57 13 82
3 139 -10 60 -17 76 -49 108 -30 31 -43 38 -65 34 -27 -5 -27 -5 -9 15 28 31
82 61 96 53 8 -5 9 -2 5 10 -5 12 -2 16 11 14 9 -2 16 2 15 9 -3 15 117 114
129 107 5 -3 7 -2 6 3 -2 4 1 9 5 10 4 1 17 12 27 25 14 17 20 19 20 8 1 -9 5
-5 11 8 5 14 13 20 20 16 7 -4 9 -3 5 4 -6 11 63 72 83 72 6 0 18 11 27 26 9
14 23 23 30 20 7 -3 18 3 26 12 12 15 11 16 -7 3 -11 -8 -2 2 19 22 21 19 44
33 51 30 7 -2 16 1 21 8 5 8 3 10 -7 4 -8 -4 0 5 16 20 70 63 125 97 94 58
-13 -16 -12 -17 4 -4 10 8 16 20 13 28 -3 8 -2 12 3 9 5 -3 16 5 25 19 10 15
22 22 31 19 11 -5 13 -2 9 11 -5 12 -2 16 12 13 10 -2 19 2 19 7 1 20 17 36
31 31 8 -3 13 -2 11 2 -4 14 308 271 329 272 6 0 25 -5 42 -11z m-20 -361 c5
-7 49 -166 97 -353 48 -187 94 -350 101 -362 8 -13 10 -23 5 -23 -15 0 -18 8
-55 145 -20 70 -37 130 -39 132 -2 2 -11 1 -20 -3 -32 -12 -30 -65 8 -213 44
-177 58 -211 83 -211 28 0 40 19 45 70 l4 45 1 -46 c1 -33 -4 -54 -16 -70 -22
-26 -43 -22 -68 16 -18 28 -204 760 -206 812 -1 19 6 41 17 53 21 23 29 25 43
8z m-94 -399 c66 -52 116 -221 121 -409 l3 -125 -7 115 c-8 119 -24 214 -41
240 -8 12 -10 12 -10 -5 0 -16 -2 -17 -9 -6 -7 12 -13 12 -24 3 -7 -7 -17 -8
-22 -4 -4 4 -4 -4 -1 -18 5 -16 -1 -11 -16 15 -17 29 -31 41 -51 43 -23 3 -30
-2 -42 -32 -17 -41 -20 -149 -5 -226 6 -29 8 -55 6 -58 -3 -2 -10 23 -17 57
-14 66 -27 75 -53 36 -12 -19 -15 -39 -11 -78 9 -86 -3 -41 -34 133 -26 147
-28 168 -16 197 15 36 41 43 60 16 12 -15 14 -12 25 26 14 52 59 101 93 101
13 0 36 -9 51 -21z m-2810 -21 c54 -16 164 -124 201 -198 15 -30 29 -56 30
-58 1 -2 27 22 57 52 68 68 107 78 171 47 47 -23 96 -82 117 -143 l14 -37 39
72 c49 90 52 94 106 129 56 35 138 39 187 9 30 -18 43 -32 137 -151 86 -109
215 -144 336 -90 30 13 86 48 124 77 39 29 72 51 74 50 2 -2 -1 -17 -7 -33
-11 -35 -50 -307 -50 -355 0 -19 -16 -72 -35 -119 -19 -47 -35 -93 -35 -102 0
-10 -4 -18 -10 -18 -5 0 -10 4 -10 10 0 14 -84 60 -111 60 -13 0 -39 -9 -57
-20 -44 -27 -49 -26 -56 20 -28 179 -162 198 -242 34 -26 -53 -27 -60 -21
-162 4 -59 9 -117 13 -129 5 -20 3 -21 -34 -16 -86 12 -195 -77 -259 -212
l-35 -75 -30 25 c-38 32 -54 31 -112 -5 -55 -35 -96 -110 -96 -174 l0 -40 -33
32 c-79 77 -201 -3 -223 -146 -6 -41 -7 -42 -28 -29 -11 8 -38 19 -58 26 -34
11 -43 10 -92 -12 l-54 -25 -7 61 c-24 212 -56 305 -114 325 -25 9 -38 7 -73
-12 -96 -51 -128 -164 -105 -377 l8 -76 -119 -92 c-66 -51 -133 -101 -150
-111 l-31 -19 -12 57 c-28 130 -9 346 41 459 19 43 19 44 -2 101 -26 73 -36
269 -19 367 24 137 77 254 138 304 34 28 36 33 45 123 38 356 199 604 397 607
24 1 62 -4 85 -11z m2410 -230 c18 -29 29 -630 14 -723 -6 -33 -10 -68 -10
-77 0 -10 -2 -17 -6 -16 -4 1 -17 -3 -29 -10 -23 -13 -75 -13 -67 0 3 4 0 8
-6 8 -7 0 -10 7 -6 15 3 8 1 15 -4 15 -6 0 -9 3 -8 8 1 4 -3 17 -10 30 -7 12
-10 27 -7 32 3 6 2 10 -4 10 -5 0 -17 22 -26 50 -9 27 -21 52 -26 56 -6 3 -9
-62 -9 -171 1 -153 -1 -179 -15 -195 -10 -11 -20 -19 -24 -18 -3 1 -19 -2 -34
-7 -22 -6 -26 -10 -15 -17 10 -8 10 -9 -2 -6 -18 5 -51 68 -45 85 2 6 0 13 -5
15 -4 2 -49 120 -100 263 -104 295 -107 318 -49 368 59 48 64 43 124 -128 24
-70 46 -129 47 -131 2 -2 2 69 0 156 -2 88 -1 171 2 186 8 31 52 74 76 74 27
0 38 -19 91 -162 l49 -133 -3 192 -2 191 29 31 c35 37 60 39 80 9z m435 -62
c2 -45 -6 -27 -12 29 -4 34 -3 42 3 25 4 -14 8 -38 9 -54z m-1099 -25 c16 -30
13 -56 -22 -184 -32 -117 -60 -167 -94 -167 -30 0 -33 35 -13 166 10 71 19
135 19 142 0 22 48 62 74 62 15 0 30 -8 36 -19z m1100 -172 l-11 -24 6 25 c2
14 6 57 7 95 l2 70 3 -71 c2 -38 -1 -81 -7 -95z m-50 -52 c28 1 31 0 17 -9
-30 -16 -62 -1 -80 37 -25 53 -21 66 6 15 20 -41 25 -45 57 -43z m-122 -147
c-1 -30 -24 85 -32 155 -3 30 3 13 14 -40 11 -49 19 -101 18 -115z m237 95
c-24 -64 -72 -107 -112 -103 -18 2 -33 1 -33 -3 0 -4 7 -41 16 -83 8 -42 14
-81 12 -87 -2 -7 -12 32 -22 85 -10 53 -15 100 -12 104 4 3 25 7 48 7 50 1 81
35 100 109 7 28 14 42 16 32 2 -10 -4 -38 -13 -61z m-1108 -75 c127 -77 190
-452 113 -676 -42 -121 -108 -187 -190 -188 -43 -1 -54 4 -86 34 -46 44 -87
132 -108 234 -18 86 -21 266 -7 342 39 203 168 321 278 254z m1443 -17 c0 -45
-29 -74 -210 -215 l-125 -97 -9 36 c-7 28 -6 38 4 41 8 3 32 21 54 42 23 20
62 51 88 68 25 18 52 38 60 44 7 7 30 22 51 33 21 11 48 35 60 52 12 18 23 33
25 33 1 0 2 -17 2 -37z m-656 -15 c25 -36 18 -52 -8 -21 -24 27 -25 27 -44 9
-30 -26 -40 -117 -18 -162 25 -54 54 -42 83 33 l14 38 -5 -39 c-10 -76 -62
-99 -96 -43 -57 92 15 270 74 185z m93 -50 c-3 -7 -5 -2 -5 12 0 14 2 19 5 13
2 -7 2 -19 0 -25z m-1533 -50 c7 -18 19 -76 25 -128 18 -135 20 -140 40 -94
23 50 84 104 117 104 62 0 108 -66 137 -195 21 -95 77 -457 77 -500 0 -66 -85
-132 -119 -92 -6 8 -20 72 -32 143 -58 365 -66 393 -107 368 -52 -32 -55 -107
-17 -354 42 -267 37 -310 -37 -341 -28 -11 -33 -11 -48 9 -10 12 -21 43 -24
69 -4 26 -36 232 -72 457 -35 224 -64 435 -64 468 0 54 3 63 31 89 43 40 76
38 93 -3z m1554 -48 c0 -22 -1 -22 -8 5 -4 17 -8 41 -8 55 0 22 1 22 8 -5 4
-16 8 -41 8 -55z m547 -124 c-10 -175 -10 -174 20 -256 37 -98 46 -274 21
-395 -22 -105 -75 -214 -126 -258 -27 -23 -40 -42 -40 -59 0 -51 -51 -225 -87
-298 -107 -218 -289 -282 -434 -152 -28 25 -51 43 -53 41 -1 -2 -15 -30 -30
-61 -31 -66 -92 -123 -148 -140 -68 -20 -141 14 -199 95 l-28 39 -17 -41 c-18
-46 -96 -120 -128 -123 -72 -5 -131 28 -172 98 l-27 46 -51 -51 c-86 -85 -166
-102 -263 -57 -55 26 -176 138 -188 175 -7 22 10 40 110 117 83 64 108 80 157
102 29 13 58 36 77 62 32 44 76 129 70 135 -2 2 -98 -69 -214 -158 -525 -403
-1618 -1225 -1740 -1309 l-60 -42 30 35 c27 32 84 83 190 171 21 18 47 41 57
50 10 10 20 18 23 18 3 0 20 13 38 29 26 23 156 123 320 245 26 20 84 66 138
110 13 11 55 42 93 70 39 28 73 53 76 57 3 3 57 44 120 92 63 47 158 119 210
159 52 40 120 91 150 112 30 22 57 43 58 48 2 5 30 26 62 48 32 22 80 58 107
80 26 22 53 44 58 48 6 4 27 20 48 35 20 15 37 26 37 24 0 -2 19 13 42 35 23
21 47 38 54 38 7 0 21 8 31 18 10 10 41 36 68 58 28 21 52 41 55 44 3 3 31 25
64 49 32 24 79 64 104 88 25 25 81 68 126 97 45 29 87 60 95 69 7 9 20 17 28
17 8 0 11 5 8 10 -3 6 -2 10 4 10 20 0 79 61 117 120 42 66 81 98 199 158 44
23 94 55 111 71 l31 29 17 -29 c17 -29 17 -29 -11 -55 -18 -16 -24 -27 -16
-30 7 -3 28 -16 47 -29 38 -26 46 -23 46 12 0 19 5 23 28 23 35 0 88 50 114
107 14 33 47 64 151 146 72 57 150 116 171 131 36 24 41 25 49 10 6 -10 7 -66
2 -138z m-538 62 c-3 -7 -5 -2 -5 12 0 14 2 19 5 13 2 -7 2 -19 0 -25z m90
-10 c-3 -7 -5 -2 -5 12 0 14 2 19 5 13 2 -7 2 -19 0 -25z m-80 -40 c-3 -7 -5
-2 -5 12 0 14 2 19 5 13 2 -7 2 -19 0 -25z m86 -59 c-5 -5 -6 11 -3 34 4 41 5
41 8 8 2 -18 0 -37 -5 -42z m-1825 -195 c80 -52 92 -182 23 -248 -24 -23 -33
-26 -49 -17 -11 6 -22 17 -26 26 -9 24 -52 18 -75 -11 -43 -55 -50 -179 -15
-301 38 -137 119 -133 149 7 15 74 94 111 115 54 15 -39 12 -144 -6 -205 -50
-172 -193 -262 -287 -180 -60 53 -104 165 -127 326 -14 98 -12 158 5 261 39
226 178 362 293 288z m-1174 -272 c13 -41 40 -239 51 -375 2 -25 8 -54 13 -63
7 -13 12 -9 25 24 18 44 67 88 116 102 23 6 40 4 73 -13 35 -18 49 -34 75 -87
18 -36 37 -90 43 -120 6 -30 16 -73 22 -94 5 -22 10 -96 10 -165 0 -141 -21
-261 -52 -303 -11 -15 -20 -32 -20 -38 0 -5 -5 -10 -11 -10 -5 0 -8 -4 -5 -9
9 -14 -54 -73 -71 -67 -7 3 -16 -1 -19 -9 -6 -15 -45 -21 -58 -8 -14 15 -36
11 -36 -7 0 -10 -4 -21 -10 -25 -5 -3 -7 -12 -4 -19 6 -17 -51 -66 -77 -66
-36 0 -35 -7 -129 730 -63 486 -69 542 -62 577 6 35 76 105 96 97 8 -3 22 -27
30 -52z m785 21 c7 -15 26 -117 42 -227 16 -111 37 -250 47 -311 9 -60 17
-140 17 -177 0 -60 -3 -70 -29 -97 -33 -35 -51 -38 -77 -15 -16 14 -18 14 -23
-4 -4 -11 -18 -32 -31 -48 -14 -16 -25 -34 -25 -40 0 -20 -35 -42 -78 -49 -34
-5 -47 -3 -62 10 -11 10 -17 21 -15 26 3 4 -1 11 -8 16 -17 10 -61 102 -53
110 3 3 1 13 -4 23 -5 9 -25 126 -45 261 -43 287 -42 317 13 354 20 14 43 25
50 25 20 0 39 -56 51 -150 20 -159 50 -347 60 -373 16 -41 44 -51 69 -24 45
47 47 102 13 334 -36 245 -38 309 -13 339 39 49 83 56 101 17z m329 -176 c10
-12 8 -40 -5 -77 -7 -18 -20 21 -22 63 -1 29 10 35 27 14z m-1269 -369 c73
-560 84 -694 56 -704 -11 -5 -15 -23 -15 -76 0 -38 -5 -112 -12 -165 -10 -79
-16 -100 -37 -124 -20 -22 -32 -27 -51 -22 -25 6 -25 6 -6 -15 11 -12 14 -22
9 -22 -6 0 -18 11 -26 24 -9 13 -27 36 -40 50 -13 14 -34 45 -46 70 -13 25
-36 60 -51 78 l-28 33 -11 -26 c-5 -15 -19 -34 -31 -42 l-21 -15 31 -132 c17
-73 29 -135 26 -138 -4 -3 -6 0 -6 7 0 7 -4 10 -9 7 -20 -13 -124 428 -160
679 -24 162 -26 209 -9 199 8 -5 9 0 3 17 -10 29 -9 117 2 146 9 23 55 63 219
190 65 51 133 103 149 117 17 14 33 25 36 26 4 0 16 -73 28 -162z m-479 -244
c-5 -27 -12 -58 -15 -69 -2 -12 -21 -28 -45 -39 -22 -9 -40 -22 -40 -27 0 -5
-5 -9 -11 -9 -6 0 -7 5 -2 13 4 6 9 20 10 30 2 10 10 32 19 48 17 33 85 112
91 106 2 -3 -1 -26 -7 -53z m4 -216 c3 -13 8 -49 11 -81 6 -51 4 -61 -14 -78
-21 -19 -47 -24 -75 -13 -12 5 -16 20 -16 60 0 48 4 58 36 94 42 46 52 49 58
18z m-133 -95 c-9 -15 -10 -12 -11 17 0 19 4 46 8 60 6 21 7 19 10 -17 2 -24
-1 -51 -7 -60z m23 -115 c4 -46 14 -117 22 -158 8 -41 11 -82 9 -91 -3 -10 -1
-20 5 -24 12 -7 14 -45 2 -45 -14 0 -61 283 -62 368 0 73 17 37 24 -50z m50
-353 c3 -8 1 -15 -4 -15 -6 0 -10 7 -10 15 0 8 2 15 4 15 2 0 6 -7 10 -15z
m536 -90 c-7 -8 -19 -15 -27 -15 -10 0 -8 6 8 19 27 22 38 19 19 -4z m-156
-481 c18 -12 15 -15 -38 -40 -66 -30 -109 -26 -66 6 14 11 32 25 40 33 19 17
40 17 64 1z"/>
<path d="M3689 4453 c-13 -16 -12 -17 4 -4 16 13 21 21 13 21 -2 0 -10 -8 -17
-17z"/>
<path d="M3508 4328 c9 -9 9 -15 0 -27 -7 -9 0 -5 15 8 15 14 27 25 27 26 0 0
-12 2 -27 3 -21 2 -24 -1 -15 -10z"/>
<path d="M2889 3813 c-13 -16 -12 -17 4 -4 16 13 21 21 13 21 -2 0 -10 -8 -17
-17z"/>
<path d="M1936 3053 c-6 -14 -5 -15 5 -6 7 7 10 15 7 18 -3 3 -9 -2 -12 -12z"/>
<path d="M1293 2559 c-13 -34 -10 -36 23 -10 24 19 24 20 6 30 -15 8 -20 5
-29 -20z"/>
<path d="M1097 2460 c-2 -8 -10 -32 -17 -53 -6 -21 -10 -40 -7 -43 2 -2 28 15
58 38 l53 43 -34 3 c-19 2 -38 9 -42 15 -5 8 -8 7 -11 -3z"/>
<path d="M3452 3128 c-1 -10 -6 -18 -11 -18 -6 0 -27 -16 -48 -35 -21 -19 -41
-35 -45 -35 -19 0 -16 -46 7 -111 33 -96 38 -100 75 -63 l31 30 -4 125 c-1 68
-4 116 -5 107z"/>
<path d="M3232 2924 c-3 -15 -72 -90 -72 -78 0 5 -7 -4 -15 -20 -17 -31 -8
-84 19 -121 15 -20 16 -19 46 11 31 30 31 30 27 125 -1 52 -4 89 -5 83z"/>
<path d="M2742 2987 c-45 -48 -48 -201 -6 -315 36 -98 109 -73 129 44 9 58
-11 190 -38 244 -26 53 -53 62 -85 27z m51 -197 c4 -30 3 -38 -3 -25 -8 19
-14 83 -6 74 2 -2 6 -24 9 -49z"/>
<path d="M2875 2580 c-4 -6 -2 -17 4 -23 20 -20 12 -36 -31 -58 -23 -12 -48
-28 -56 -35 -7 -8 -18 -12 -23 -9 -5 3 -18 1 -30 -6 -30 -15 -8 -29 48 -29 47
0 108 42 99 67 -3 8 -2 12 3 9 11 -7 27 12 46 57 l15 37 -24 -10 c-15 -5 -27
-5 -34 2 -6 6 -12 6 -17 -2z"/>
<path d="M2533 2293 c-7 -2 -13 -12 -14 -21 0 -11 -2 -12 -6 -4 -2 6 -9 12
-14 12 -15 0 -10 -26 7 -40 13 -11 19 -9 41 12 32 32 23 57 -14 41z"/>
<path d="M2320 2131 c0 -5 -11 -12 -25 -15 -14 -4 -24 -10 -24 -14 1 -4 1 -14
0 -22 -1 -13 -2 -13 -11 0 -8 13 -10 12 -10 -2 0 -24 31 -23 58 2 19 18 31 60
17 60 -3 0 -5 -4 -5 -9z"/>
<path d="M3223 2307 c-23 -18 -42 -35 -43 -39 0 -3 16 -15 35 -27 l34 -20 11
42 c6 23 13 50 16 60 7 24 -5 21 -53 -16z"/>
<path d="M2914 2066 c-18 -14 -18 -16 -3 -31 15 -15 17 -15 23 10 9 34 5 39
-20 21z"/>
<path d="M2103 1973 c-3 -10 -8 -22 -11 -27 -3 -5 0 -6 5 -3 11 7 25 47 17 47
-3 0 -7 -8 -11 -17z"/>
<path d="M2027 1907 c-10 -10 -16 -21 -13 -25 2 -4 -7 -9 -22 -10 -14 -1 -31
-7 -37 -13 -7 -7 -4 -8 10 -3 18 7 18 6 6 -9 -10 -13 -10 -17 -1 -17 21 0 78
40 99 69 19 27 19 27 -2 27 -12 0 -29 -8 -40 -19z"/>
<path d="M1014 1823 c-21 -20 -21 -21 -36 -108 -15 -96 14 -265 52 -300 31
-28 70 -15 94 30 40 76 31 288 -14 363 -23 37 -65 43 -96 15z m56 -200 c8 -62
0 -99 -11 -48 -8 39 -11 120 -3 113 3 -4 9 -32 14 -65z"/>
<path d="M1201 1432 c-1 -8 -6 -10 -13 -6 -10 6 -10 5 -1 -7 17 -21 3 -35 -34
-36 -35 0 -66 -19 -57 -34 3 -5 -2 -9 -12 -9 -13 0 -14 -3 -4 -15 10 -12 7
-13 -20 -5 -18 5 -38 14 -46 21 -12 10 -13 6 -7 -21 4 -23 3 -31 -5 -26 -5 3
-12 0 -15 -6 -3 -10 -9 -11 -26 0 -25 15 -31 15 -31 2 0 -5 5 -9 11 -7 6 1 13
-3 16 -10 2 -7 -7 -10 -26 -9 -28 2 -31 0 -30 -28 0 -41 14 -125 22 -132 11
-12 43 7 60 35 9 16 17 45 17 65 0 40 9 44 45 20 53 -35 140 19 173 109 31 83
35 100 24 93 -6 -3 -13 0 -15 6 -3 7 -6 4 -7 -7 l-1 -20 -9 20 c-5 11 -9 14
-9 7z m-156 -122 c3 -6 -1 -7 -9 -4 -18 7 -21 14 -7 14 6 0 13 -4 16 -10z"/>
<path d="M1715 1758 c-5 -21 -14 -28 -31 -28 -15 0 -24 -6 -24 -15 0 -8 -3
-14 -7 -12 -13 4 -11 -17 4 -39 17 -26 48 -21 68 10 11 16 12 33 6 66 -7 43
-8 44 -16 18z"/>
<path d="M1561 1664 c-1 -7 -10 -14 -21 -17 -11 -3 -20 -12 -20 -21 0 -9 -4
-16 -10 -16 -16 0 -60 -42 -54 -52 3 -4 -4 -8 -15 -8 -10 0 -22 6 -24 13 -3 7
-6 8 -6 1 -1 -6 9 -24 20 -39 18 -22 28 -26 50 -21 57 11 93 47 114 115 5 18
4 22 -6 16 -9 -6 -11 -3 -6 9 4 9 3 15 -2 11 -5 -3 -12 1 -14 7 -4 8 -6 9 -6
2z"/>
<path d="M480 1769 c-22 -18 -22 -19 -3 -10 12 6 25 16 28 21 9 15 3 12 -25
-11z"/>
<path d="M400 1712 c0 -6 -6 -9 -14 -6 -7 3 -21 -6 -30 -20 -9 -15 -25 -26
-36 -26 -15 0 -20 -7 -20 -26 0 -21 3 -24 14 -15 11 9 12 6 9 -16 -4 -25 -2
-25 12 7 9 19 30 50 47 67 18 18 29 36 25 40 -4 3 -7 1 -7 -5z"/>
<path d="M532 1471 c-9 -5 -4 -8 16 -7 17 1 28 4 25 9 -6 9 -25 9 -41 -2z"/>
</g>
</svg>
